{"title":"The.Hangover.2009.SWESUB.DVDRip.XviD.AC3.(5.1).-Zen_Bud","uid":5706343,"size":1471508550,"categoryP":"video","categoryS":"movies","magnet":"?xt=urn:btih:d90ed78ea34d0fe96eeff69fecdec2583dbaf78c&amp;dn=The.Hangover.2009.SWESUB.DVDRip.XviD.AC3.%285.1%29.-Zen_Bud&amp;tr=udp%3A%2F%2Ftracker.openbittorrent.com%3A80&amp;tr=udp%3A%2F%2Fopen.demonii.com%3A1337&amp;tr=udp%3A%2F%2Ftracker.coppersurfer.tk%3A6969&amp;tr=udp%3A%2F%2Fexodus.desync.com%3A6969","seeders":5,"leechers":1,"uploader":"bobbybike","files":1,"time":1279700846,"description":"General\nComplete name                    : The.Hangover.2009.avi\nFormat                           : AVI\nFile size                        : 1.37 GiB\nDuration                         : 1h 43mn\nOverall bit rate                 : 1 897 Kbps\n\nVideo\n\nFormat                           : MPEG-4 Visual\nCodec ID/Hint                    : XviD\nDuration                         : 1h 43mn\nBit rate                         : 1 502 Kbps\nWidth                            : 720 pixels\nHeight                           : 428 pixels\nDisplay aspect ratio             : 2.35:1\nBits/(Pixel*Frame)               : 0.195\nStream size                      : 1.09 GiB (79%)\nWriting library                  : XviD 1.1.2 (UTC 2006-11-01)\n\nAudio\n\nFormat                           : AC-3\nDuration                         : 1h 43mn\nBit rate                         : 384 Kbps\nChannel(s)                       : 6 channels\nChannel positions                : Front: L C R, Side: L R, LFE\nSampling rate                    : 48.0 KHz\nStream size                      : 284 MiB (20%)","torrent":{"xt":"urn:btih:d90ed78ea34d0fe96eeff69fecdec2583dbaf78c","amp;dn":"The.Hangover.2009.SWESUB.DVDRip.XviD.AC3.%285.1%29.-Zen_Bud","amp;tr":["udp%3A%2F%2Ftracker.openbittorrent.com%3A80","udp%3A%2F%2Fopen.demonii.com%3A1337","udp%3A%2F%2Ftracker.coppersurfer.tk%3A6969","udp%3A%2F%2Fexodus.desync.com%3A6969"],"infoHash":"d90ed78ea34d0fe96eeff69fecdec2583dbaf78c","infoHashBuffer":{"type":"Buffer","data":[217,14,215,142,163,77,15,233,110,239,246,159,236,222,194,88,61,186,247,140]},"announce":[],"urlList":[]}}